<?xml version="1.0" encoding="UTF-8"?>
<svg width="64px" height="57px" viewBox="0 0 64 57" version="1.1" xmlns="http://www.w3.org/2000/svg" xmlns:xlink="http://www.w3.org/1999/xlink">
    <!-- Generator: Sketch 46.1 (44463) - http://www.bohemiancoding.com/sketch -->
    <title>logo</title>
    <desc>Created with Sketch.</desc>
    <defs>
        <polygon id="path-1" points="0.191015385 24.800561 63.6311912 24.800561 63.6311912 0.441680488 0.191015385 0.441680488 0.191015385 24.800561"></polygon>
        <linearGradient x1="0%" y1="0%" x2="100%" y2="-1.11022302e-14%" id="linearGradient-3">
            <stop stop-color="#FF7FFF" offset="0%"></stop>
            <stop stop-color="#B0A7FF" offset="100%"></stop>
        </linearGradient>
        <linearGradient x1="14.857385%" y1="100%" x2="85.4336012%" y2="100%" id="linearGradient-4">
            <stop stop-color="#FD7FFF" offset="0%"></stop>
            <stop stop-color="#C59BFF" offset="100%"></stop>
        </linearGradient>
        <polygon id="path-5" points="0.547868132 24.800561 28.1093626 24.800561 28.1093626 0.441471951 0.547868132 0.441471951"></polygon>
        <linearGradient x1="0%" y1="0%" x2="96.8550702%" y2="-1.07530729e-14%" id="linearGradient-7">
            <stop stop-color="#EDA4FF" offset="0%"></stop>
            <stop stop-color="#D2B2FF" offset="100%"></stop>
        </linearGradient>
        <linearGradient x1="0%" y1="100%" x2="100%" y2="100%" id="linearGradient-8">
            <stop stop-color="#D1B2FF" offset="0%"></stop>
            <stop stop-color="#C3BBFF" offset="100%"></stop>
        </linearGradient>
        <linearGradient x1="0%" y1="100%" x2="100%" y2="100%" id="linearGradient-9">
            <stop stop-color="#FF9DFE" offset="0%"></stop>
            <stop stop-color="#EEA4FF" offset="100%"></stop>
        </linearGradient>
        <linearGradient x1="0%" y1="100%" x2="96.7055963%" y2="100%" id="linearGradient-10">
            <stop stop-color="#F7DAFF" offset="0%"></stop>
            <stop stop-color="#EDDFFF" offset="100%"></stop>
        </linearGradient>
    </defs>
    <g id="Index" stroke="none" stroke-width="1" fill="none" fill-rule="evenodd">
        <g id="DZMX" transform="translate(-162.000000, -162.000000)">
            <g id="Logotype" transform="translate(162.000000, 162.000000)">
                <g id="logo">
                    <g id="Group-5" transform="translate(22.505495, 40.200293)">
                        <path d="M2.83115429,7.35095946 C2.01008445,8.07580002 2.03564304,9.30149609 2.88993905,10.1333517 C3.5199584,10.746822 4.03113029,10.7997073 9.3179255,10.7997073 C9.37415441,10.7997073 9.42591056,10.7997073 9.48086154,10.7990851 C9.53517355,10.7997073 9.58756867,10.7997073 9.64315861,10.7997073 C14.9305928,10.7997073 15.4417647,10.746822 16.071784,10.1333517 C16.92608,9.30149609 16.9516386,8.07580002 16.1305688,7.35095946 C15.6008669,6.88494608 14.6104714,6.80095168 9.48086154,6.79970732 C4.35061271,6.80095168 3.36085615,6.88494608 2.83115429,7.35095946 Z" id="Fill-2" fill="#7144AE"></path>
                        <path d="M9.48114286,13.0997104 C6.18057143,13.1024909 5.24096703,13.2144055 5.24096703,13.6001982 C5.24096703,14.2216372 6.27340659,15.1683933 7.5090989,15.6827835 C8.44167033,16.0706616 10.5192088,16.0706616 11.4531868,15.6827835 C12.6888791,15.1683933 13.7206154,14.2216372 13.7206154,13.6001982 C13.7206154,13.2144055 12.7817143,13.1024909 9.48114286,13.0997104" id="Fill-3" fill="#6334A2"></path>
                        <path d="M9.48058022,0.29195122 C4.87258022,0.295582185 1.49450549,0.29195122 1.07126154,0.627210366 C0.246219743,1.2807408 0.494505495,3.79970732 1.19011868,4.33866225 C1.76392854,4.78324504 3.13543736,4.83913033 9.48058022,4.76711618 C15.8257231,4.83913033 17.4506615,4.79875535 17.7710418,4.33866225 C18.4945055,3.29970732 18.9945055,1.79970732 17.8898989,0.627210366 C17.8898989,0.627210366 14.0892835,0.295582185 9.48058022,0.29195122 Z" id="Fill-4" fill="#895AC8"></path>
                    </g>
                    <g id="Group-20" transform="translate(0.000000, 0.578341)">
                        <g id="Group-8" transform="translate(0.000000, 13.207317)">
                            <mask id="mask-2" fill="white">
                                <use xlink:href="#path-1"></use>
                            </mask>
                            <g id="Clip-7"></g>
                            <path d="M62.227411,3.81997317 C63.1128615,2.86209512 63.5805538,1.65953415 63.6311912,0.441680488 L0.191015385,0.441680488 C0.241652747,1.66022927 0.709345055,2.86348537 1.5954989,3.82205854 L27.9297407,32.2977293 C30.0586198,34.599278 33.714356,34.6076195 35.8608176,32.3338756 L50.9198066,16.0520341 L62.227411,3.81997317 Z" id="Fill-6" fill="url(#linearGradient-3)" mask="url(#mask-2)"></path>
                        </g>
                        <path d="M55.9919121,2.17990244 C54.9665055,0.931463415 53.4276923,0.205756098 51.8002637,0.205756098 L12.0309451,0.205756098 C10.4,0.205756098 8.85626374,0.93354878 7.83085714,2.18754878 L2.93520879,8.17393902 L1.37178022,10.0883049 C0.527824176,11.1282073 0.138901099,12.3968049 0.190945055,13.6487195 L63.6311209,13.6487195 C63.6838681,12.4002805 63.2970549,11.1358537 62.458022,10.0973415 L55.9919121,2.17990244 Z" id="Fill-9" fill="url(#linearGradient-4)"></path>
                        <g id="Group-13" transform="translate(17.582418, 13.207317)">
                            <mask id="mask-6" fill="white">
                                <use xlink:href="#path-5"></use>
                            </mask>
                            <g id="Clip-12"></g>
                            <path d="M0.547868132,0.441471951 L13.3105934,33.9317524 C13.9829451,34.0596549 14.6742857,34.0589598 15.3466374,33.9331427 L28.1093626,0.441471951 L0.547868132,0.441471951 Z" id="Fill-11" fill="url(#linearGradient-7)" mask="url(#mask-6)"></path>
                        </g>
                        <path d="M54.0527824,0.700960976 L45.6919912,13.6489976 L63.6316835,13.6489976 C63.6837275,12.3998634 63.2969143,11.1354366 62.4578813,10.0976195 L55.9917714,2.18018049 C55.4635956,1.53649756 54.796167,1.03879024 54.0527824,0.700960976" id="Fill-14" fill="url(#linearGradient-8)"></path>
                        <path d="M9.77104176,0.703185366 C9.02695385,1.04240488 8.35882198,1.54219756 7.83134945,2.18727073 L2.98422857,8.11457561 L1.37156923,10.088722 C0.527613187,11.1286244 0.13869011,12.3965268 0.190734066,13.6484415 L18.1304264,13.6484415 L9.77104176,0.703185366 Z" id="Fill-16" fill="url(#linearGradient-9)"></path>
                        <polygon id="Fill-18" fill="url(#linearGradient-10)" points="45.6920615 13.648789 31.9109626 0.200959756 18.130567 13.648789"></polygon>
                    </g>
                </g>
            </g>
        </g>
    </g>
</svg>