<svg width="64" height="57" viewBox="0 0 64 57" xmlns="http://www.w3.org/2000/svg" xmlns:xlink="http://www.w3.org/1999/xlink"><title>logo</title><defs><path id="a" d="M.191 24.8h63.44V.443H.191V24.8z"/><linearGradient x1="0%" y1="0%" y2="0%" id="b"><stop stop-color="#FF7FFF" offset="0%"/><stop stop-color="#B0A7FF" offset="100%"/></linearGradient><linearGradient x1="14.857%" y1="100%" x2="85.434%" y2="100%" id="d"><stop stop-color="#FD7FFF" offset="0%"/><stop stop-color="#C59BFF" offset="100%"/></linearGradient><path id="e" d="M.548 24.8h27.561V.442H.548z"/><linearGradient x1="0%" y1="0%" x2="96.855%" y2="0%" id="f"><stop stop-color="#EDA4FF" offset="0%"/><stop stop-color="#D2B2FF" offset="100%"/></linearGradient><linearGradient x1="0%" y1="100%" y2="100%" id="h"><stop stop-color="#D1B2FF" offset="0%"/><stop stop-color="#C3BBFF" offset="100%"/></linearGradient><linearGradient x1="0%" y1="100%" y2="100%" id="i"><stop stop-color="#FF9DFE" offset="0%"/><stop stop-color="#EEA4FF" offset="100%"/></linearGradient><linearGradient x1="0%" y1="100%" x2="96.706%" y2="100%" id="j"><stop stop-color="#F7DAFF" offset="0%"/><stop stop-color="#EDDFFF" offset="100%"/></linearGradient></defs><g fill="none" fill-rule="evenodd"><path d="M25.337 47.551c-.821.725-.796 1.95.058 2.783.63.613 1.142.666 6.428.666h.326c5.287 0 5.798-.053 6.428-.666.855-.832.88-2.058.06-2.783-.53-.466-1.521-.55-6.65-.551-5.13.001-6.12.085-6.65.551z" fill="#7144AE"/><path d="M31.987 53.3c-3.3.003-4.24.115-4.24.5 0 .622 1.032 1.569 2.268 2.083.932.388 3.01.388 3.944 0 1.235-.514 2.267-1.461 2.267-2.083 0-.385-.939-.497-4.24-.5" fill="#6334A2"/><path d="M31.986 40.492c-4.608.004-7.986 0-8.41.336-.824.653-.576 3.172.12 3.711.573.445 1.945.5 8.29.428 6.345.072 7.97.032 8.29-.428C41 43.5 41.5 42 40.397 40.828c0 0-3.801-.332-8.41-.336z" fill="#895AC8"/><g><g transform="translate(0 13.786)"><mask id="c" fill="#fff"><use xlink:href="#a"/></mask><path d="M62.227 3.82A5.286 5.286 0 0 0 63.631.442H.191a5.288 5.288 0 0 0 1.404 3.38L27.93 32.298c2.129 2.301 5.784 2.31 7.93.036l15.06-16.282L62.227 3.82z" fill="url(#b)" mask="url(#c)"/></g><path d="M55.992 2.18A5.423 5.423 0 0 0 51.8.206H12.03c-1.63 0-3.174.728-4.2 1.982L2.936 8.174l-1.563 1.914a5.285 5.285 0 0 0-1.181 3.56h63.44a5.28 5.28 0 0 0-1.173-3.55L55.992 2.18z" fill="url(#d)" transform="translate(0 .578)"/><g transform="translate(17.582 13.786)"><mask id="g" fill="#fff"><use xlink:href="#e"/></mask><path d="M.548.441l12.763 33.49a5.494 5.494 0 0 0 2.036.002L28.109.441H.548z" fill="url(#f)" mask="url(#g)"/></g><path d="M54.053.701l-8.361 12.948h17.94a5.281 5.281 0 0 0-1.174-3.551L55.992 2.18a5.375 5.375 0 0 0-1.94-1.479" fill="url(#h)" transform="translate(0 .578)"/><path d="M9.771.703a5.379 5.379 0 0 0-1.94 1.484L2.984 8.115l-1.612 1.974a5.283 5.283 0 0 0-1.181 3.56h17.94L9.77.702z" fill="url(#i)" transform="translate(0 .578)"/><path fill="url(#j)" d="M45.692 13.649L31.911.2l-13.78 13.448z" transform="translate(0 .578)"/></g></g></svg>